<svg xmlns="http://www.w3.org/2000/svg" viewBox="0 0 674.14 552.96"><defs><style>.a{fill:#484344;}.b{fill:#635656;}.c{fill:#514140;}.d{fill:#504140;}.e{fill:#625555;}.f{fill:#534342;}.g{fill:#fbeef1;}.h{fill:#f7e0ec;}.i{fill:#f3dde8;}.j{fill:#efa5c4;}.k{fill:#f8ebf2;}.l{fill:#fa98ab;}.m{fill:#f7eaf1;}.n{fill:#f6dfeb;}.o{fill:#fa99ab;}.p{fill:#f59bad;}.q{fill:#f59bae;}.r{fill:#fb98ab;}.s{fill:#f8eaf1;}.t{fill:#f5dde9;}.u{fill:#f999ac;}.v{fill:#f4dde9;}.w{fill:#f4dce8;}.x{fill:#f0a5c5;}.y{fill:#f7dfeb;}.z{fill:#f99aae;}</style></defs><path class="a" d="M-7187-7240.75v179.58h-31.91v-357.45c4.31-.19,8.7-.53,13.09-.53q76.13-.06,152.23,0c19.51,0,39,.37,58.52-.22,6.79-.21,11.76,1.86,17,5.69q87.11,63.33,174.46,126.34l26.26,19c.66.47,1.34.89,1.78,1.19q114.29-83.85,228.22-167.41a11.33,11.33,0,0,1,2-.78c0,3,0,5.62,0,8.22.13,8.09.25,16.17.47,24.25a4.46,4.46,0,0,1-1.92,4.15c-10.23,7.54-20.4,15.16-30.61,22.72l-170.58,126.13c-.57.42-1.12.88-1.84,1.46,8.72,6.31,17.31,12.5,25.88,18.71q51,36.89,101.91,73.78c23.67,17.13,47.21,34.47,71.16,51.2,4.67,3.26,6.26,6.26,6,11.71-.48,10.88-.18,21.8-.21,32.71v2.49c-5-3.42-9.77-6.51-14.37-9.83q-71.35-51.39-142.68-102.85-37.55-27.07-75.08-54.16c-2-1.42-3.13-1.47-5.08,0q-42.17,31.35-84.46,62.55l-129.18,95.52c-.58.43-1.1.94-1.66,1.39-3.09,2.5-6.11,4.62-10.59,4.4-8.24-.41-16.5-.12-25-.12v-179.76Zm5-174.26h-6.58c-8,.18-16.05.42-24.08.5-2.05,0-2.07,1.09-2.07,2.58,0,7.87,0,15.75,0,23.62v38.21c.36,8.68.92,17.36,1,26.05s-.27,17.4-.46,26.11c-.16,7-.54,13.95-.51,20.93.06,15.88.29,31.76.5,47.64.11,8.07.48,16.14.52,24.21q.33,66.34.56,132.69c0,7.11,0,7.11,7.08,7.08h10.91l3.46-.16c0-7,0-13.71,0-20.39.07-8,.29-16,.32-23.92,0-5.16-.22-10.31-.26-15.47q-.09-8.76,0-17.51c.06-7.34.25-14.67.28-22,0-5.43-.12-10.86-.17-16.29-.07-8.58-.15-17.16-.15-25.74,0-3,.22-6,.34-9.07v-6l-.53-8.19.54-12c0-1.22-.89-3,1.64-2.73l3.82-.55h106.28c8.49-.36,17-.91,25.46-1,4.52,0,9.08-.73,13.63.87,2.54.89,5.53.5,8.32.68l3.27,1v82.61q0,39.39,0,78.79a16.62,16.62,0,0,0,.51,2.84c0,2.62,0,5.25,0,7.87,0,6.36,0,6.36,6.53,6.31h7.11c1.17,0,2.35,0,3.52,0,3.65.21,7.17.13,10-2.84a26.75,26.75,0,0,1,3.4-2.63l7.1-5.46,6.55-4.91,5.44-3.82,7.64-6,2.16-1.63a3.49,3.49,0,0,0,1-.32q9.41-6.89,18.78-13.82,25.83-19.11,51.63-38.26c4-3,8-6.16,12-9.24l3.8-2.73,5.45-3.82,42-31.07,7.08-5.47,10.36-7.65,19.6-14.18c1.67-1.21,3.3-2.5,5-3.62,4.53-2.95,8.1-8,14.6-6.74l8.18,4.91,5.45,3.83,7.61,5.45,5.47,3.82,25.6,18.54,5.46,3.81,15.25,10.91q4.36,3.29,8.74,6.56l8.16,6,56.15,40.38,5.43,3.8,21.82,15.84,7.07,4.89c1.62,1.26,3.22,2.58,4.89,3.79q18,13,36,26c2.15,1.55,4.32,3.07,7,5v-24.41a20.41,20.41,0,0,1,0-2.71c.41-3.14-.44-5.44-3.44-7.12a90.56,90.56,0,0,1-8.13-5.8q-8.1-5.82-16.24-11.62c-1.36-1-2.7-2.12-4.08-3.12q-17.46-12.65-34.94-25.26c-4.38-3.15-8.86-6.18-13.29-9.26l-15.82-11.47-8.19-6-8.16-6-3.82-2.72c-8.29-6.06-16.57-12.15-24.89-18.19q-18-13-36-26c-6.58-4.75-13.21-9.43-19.81-14.15l-7.07-5.44a8,8,0,0,0-.09-2.69c-1-2.6.14-4,2.21-5.32,2.32-1.5,4.4-3.37,6.58-5.09l8.73-6.55,14.7-10.9a10.66,10.66,0,0,0,1.65-.84q8-5.85,15.91-11.76,20.11-15,40.22-29.95c5.11-3.72,10.23-7.41,15.31-11.17q13.08-9.65,26.1-19.37c4.05-3,8.09-6,12.16-9q29.13-21.42,58.22-42.89c1-.78,1.43-2.46,2.12-3.72v-23.64l-50.68,37.29-25.08,18.55-5.44,4.36-6,4.36-5.45,3.82-22.9,16.91-5.43,4.36a3.28,3.28,0,0,0-1,.31q-8.68,6.42-17.34,12.9c-2.28,1.72-4.48,3.56-6.73,5.34q-3,2.19-6,4.36l-4.36,3.27-6,4.37-7.63,5.44-4.38,3.29-3.27,2.19c-.71.54-1.43,1.09-2.15,1.62-12.3,9.12-24.57,18.28-36.93,27.32-2.79,2-5.9,3.62-8.86,5.42l-6-2.19c-1.18-1-2.31-2-3.54-2.86q-17.15-12.48-34.34-24.92c-2.39-1.73-4.9-3.3-7.35-4.94l-11.46-8.18-4.37-3.29a7,7,0,0,0-.9-1c-8.46-6.15-16.9-12.33-25.41-18.4-6.07-4.33-12.24-8.52-18.37-12.78a16.72,16.72,0,0,0-1.7-1.67c-5.23-3.83-10.49-7.63-15.73-11.43-2.16-1.63-4.28-3.29-6.47-4.87q-20.82-15-41.66-29.91-10.8-7.74-21.65-15.42l-13.62-9.81a15.78,15.78,0,0,0-2.83-.52q-31.83,0-63.66,0H-7182Z" transform="translate(7218.89 7610.82)"/><path class="a" d="M-6708.06-7481.14c-.79,1.73-1.7,3.36-2.3,5.11q-10.79,31.33-21.48,62.69l-43.53,126.95c-.18.52-.23,1.17-.59,1.51-.9.87-1.95,2.22-2.92,2.2a4.09,4.09,0,0,1-2.84-2.29c-1.8-4.64-3.3-9.39-4.92-14.11q-28.95-84.41-57.87-168.83c-1.48-4.34-2.79-8.75-4-13.17a5.25,5.25,0,0,1,.3-3.5q33.21-62,66.58-123.9c.56-1.05,1.87-2.36,2.82-2.34s2.24,1.33,2.8,2.39q33.51,62.16,66.88,124.39A22.32,22.32,0,0,1-6708.06-7481.14Zm-114.24,63.4a13.81,13.81,0,0,0,.38,1.57q17.86,52.28,35.76,104.53c2.35,6.86,4.75,13.69,7.34,21.15,2.27-6.6,4.35-12.57,6.38-18.56q5.08-15,10.13-30.08a20,20,0,0,0,.89-1.94q6.8-19.77,13.54-39.56c3-8.9,6-17.83,9-26.74a3.4,3.4,0,0,0,.42-.67c8.06-23.56,16.07-47.14,24.23-70.67a7,7,0,0,0-.55-6.31q-28.2-52.32-56.28-104.71c-2.52-4.69-5-9.37-7.8-14.49l-16.73,31.56c-1.71,3.07-3.45,6.13-5.11,9.23q-9,16.88-18,33.78l-7,13q-3.27,6.07-6.53,12.14c-3.9,7.15-7.81,14.29-11.65,21.46a3.13,3.13,0,0,0-.19,2.25c3.2,9.39,6.47,18.76,9.73,28.13.73,2.31,1.42,4.64,2.21,6.93Q-6827.21-7431.72-6822.3-7417.74Z" transform="translate(7218.89 7610.82)"/><path class="a" d="M-6610.75-7486.68q-2.61,21.49-5.23,43c-.81,6.58-1.75,13.14-2.36,19.74a7.75,7.75,0,0,1-3.14,5.7q-27.83,22.34-55.59,44.75l-69.93,56.39a10,10,0,0,1-2.36,1.8c-1,.4-2.63.85-3.09.39a3.69,3.69,0,0,1-.64-3.25c3.24-8.17,6.66-16.28,10-24.39q21.66-52,43.29-103.92a9.57,9.57,0,0,1,5.17-5.51q39.41-18.09,78.72-36.35a12.87,12.87,0,0,1,2.26-.91C-6611.57-7489.75-6610.52-7488.78-6610.75-7486.68Zm-103.67,111-2.08,3.77q-3.87,6.81-7.72,13.64l-.6,1.06-13.83,23.84.69.55,18.15-21,2.82-3.29,2-2.19,4.37-5.55,4.91-5.44,4.26-4.82c1.49-1.82,3-3.63,4.49-5.45,2-2.24,3.79-4.61,5.9-6.7a11.68,11.68,0,0,0,3.29-8l2.94-13.88-.7-.24-9.82,10.35c-3.33,3.41-6.69,6.79-10,10.25-1.84,1.94-3.56,4-5.33,6Zm94.28-105.45c-8.24,3.75-16.5,7.46-24.73,11.25-15.79,7.29-31.55,14.65-47.37,21.89a6.51,6.51,0,0,0-3.53,3.8q-16.72,40.32-33.55,80.61-2.43,5.83-4.82,11.69a2.22,2.22,0,0,0,1.56-1.1c4.17-7.32,8.44-14.59,12.46-22s8.25-14.57,14.58-20.39c4.8-4.41,9.05-9.4,13.55-14.13,1.93-1.91,4-3.71,5.75-5.77a3.9,3.9,0,0,1,5.32-1c.93.6,1.33,2.88,1.12,4.27-.89,5.73-1.92,11.45-3.26,17.09-.76,3.2-1.52,6.8-3.49,9.22-8.3,10.22-17.07,20.05-25.66,30-2.75,3.2-5.46,6.43-8.19,9.64.8.33,1.3.33,1.61.09,5-3.88,9.95-7.75,14.87-11.7q29.55-23.76,59.06-47.56c6.71-5.42,13.45-10.8,20.07-16.33a6.18,6.18,0,0,0,1.91-3.6c1.67-12.69,3.21-25.4,4.76-38.11.8-6.55,1.55-13.12,2.38-20.12Z" transform="translate(7218.89 7610.82)"/><path class="a" d="M-6801.8-7316.61c-.38.59-.71,1.68-1.23,1.78a4.13,4.13,0,0,1-2.95-.43c-3.29-2.41-6.44-5-9.62-7.56q-31.68-25.55-63.34-51.11-27.87-22.48-55.71-45a6.51,6.51,0,0,1-2.18-3.81c-1.74-13.14-3.31-26.3-4.91-39.45-.95-7.75-1.91-15.5-2.77-23.25-.12-1.13-.07-3.05.51-3.32a5.05,5.05,0,0,1,3.75.18c6.22,2.74,12.36,5.64,18.52,8.5q30.69,14.22,61.4,28.4a7.9,7.9,0,0,1,4.31,4.53q26.64,64,53.35,128C-6802.36-7318.4-6802.14-7317.62-6801.8-7316.61Zm-64.8-73.83,3.42,4.35,7,8.31,7.65,9,5.07,6.18q12.41,14.19,24.79,28.39l.77-.57c-.52-1-1-2-1.56-3l-20.17-35.34-4-7.57q-2.7-3.49-5.39-7-3.83-3.89-7.64-7.78c-4.33-4.79-8.81-9.43-13.35-14l-.74.59q1.32,5.58,2.65,11.16Q-6867.32-7394-6866.6-7390.44Zm6.19-15.87c3.24,3.41,6.54,6.78,9.72,10.25,3.34,3.66,7.2,7,9.74,11.21,6.27,10.26,11.92,20.9,17.82,31.39.44.77.93,1.52,1.65,2.69.14-.82.24-1,.19-1.16q-19.48-46.78-39-93.54a3.93,3.93,0,0,0-1.73-1.89c-3.59-1.73-7.24-3.31-10.87-4.94l-3.27-1.48c-7.51-3.54-15-7.13-22.52-10.61-9.76-4.5-19.55-8.92-29.32-13.38l-11.73-5.68c.74,6.05,1.39,11.45,2.05,16.84q2.47,20.53,4.94,41.08a6.24,6.24,0,0,0,2.55,4.48q44.67,35.9,89.23,71.92c3,2.43,6.08,4.83,9.12,7.24a4.76,4.76,0,0,0-1.21-2.28q-17.93-20.67-35.82-41.38a10.74,10.74,0,0,1-2.38-4.49q-2.44-11.15-4.4-22.39c-.22-1.27.31-3.45,1.21-4a4.08,4.08,0,0,1,5.33,1.12C-6866.36-7412.16-6863.33-7409.28-6860.41-7406.31Z" transform="translate(7218.89 7610.82)"/><path class="b" d="M-7087.73-7245.39h-98.09a26,26,0,0,0,0-2.93c-.08-.63-.37-1.72-.66-1.76-1.76-.21-3.54-.17-5.31-.22-1.88-.23-3.78-.35-5.63-.71-2.55-.51-3.77-2-3.69-4.79.3-9.7.51-19.4.57-29.09.09-14.17,0-28.35.12-42.51,0-1.55,1-4,2.13-4.44,2.09-.87,4.66-.6,7-.8v6l-2.71,1v2.94c0,12.66.06,25.33,0,38-.05,8.32-.34,16.64-.51,25,0,1.15-.29,2.53,1.63,2.39l7.64.46v-11.36h25.05a32.6,32.6,0,0,0,2.3,4.19,4.47,4.47,0,0,0,2.54,1.74,90.28,90.28,0,0,0,9.13,1c5.21.32,10.42.48,15.68.71a9.06,9.06,0,0,0,.3-1.3c.36-4.72.89-5.27,5.59-5.22q20.54.24,41.08.54,14.67.22,29.36.56c3.07.06,6.14.24,9.21.35,1.79.07,3.34-.14,3.09-2.54l10.89-.54,6.28.92c.29-2.75.73-5.24.78-7.75.25-13.59.41-27.18.56-40.78a5.73,5.73,0,0,0-.59-2.82c-1.78-3.07-1.25-4.82,2.08-5.94a22.06,22.06,0,0,1,3.94-.9c4-.59,8-1.1,12-1.64v15.79c-2.81,0-5.63.12-8.44,0-1.92-.09-2.47.58-2.49,2.48-.11,13.34-.32,26.68-.52,40,0,.9-.17,1.8-.21,2.7,0,.74,0,1.49,0,2.37l4-.24v-5.14c0-7.1.71-7.83,7.62-7.77q0,12,0,24a12.49,12.49,0,0,1-1.62,0c-2.58-.42-3.68.57-3.29,3.23.43,3,.77,6.06,1.13,9.09a3.3,3.3,0,0,1-3.16,4.05l-5.44.73v12.92H-7006v10.9h-12.86a7.19,7.19,0,0,0-.2,1.27q-.3,11.69-.56,23.38l-.54,24.7q-.28,13-.55,26.09c-.17,7.88-.4,15.76-.53,23.65q-.33,19.44-.56,38.9c0,3.09,0,6.18,0,9.27-6.54.05-6.54.05-6.53-6.31,0-2.62,0-5.25,0-7.87q.28-10.59.55-21.19.28-12.22.55-24.46.54-25.14,1.09-50.3c.18-8.44.4-16.87.53-25.3q.33-20.3.56-40.58c0-.87-.09-1.75-.15-2.8l-6.93-.64c-2.79-.18-5.78.21-8.32-.68-4.55-1.6-9.11-.92-13.63-.87-8.49.09-17,.64-25.46,1,0-6.3,1-7.3,7.37-7.09h.55c9.3-.36,18.61-.77,27.91-1.06,2.3-.07,1.68-1.63,1.76-2.87.09-1.43.14-2.59-2-2.66-7.58-.24-15.16-.79-22.74-1-10.32-.29-20.65-.44-31-.55-7.62-.09-15.25,0-22.87,0-1,0-1.94.08-2.84.12-1,5.94-1.56,6.56-7.43,6.39-9.63-.29-19.26-.69-28.88-1.33-1.34-.09-2.69-1.75-3.79-2.92-.6-.64-.67-1.79-1.07-3l-12.57.7c0,2.85.1,5.21,0,7.55-.09,1.81.59,2.37,2.36,2.32,3.88-.1,7.78-.14,11.66,0,6,.25,12.08.65,18.11,1.05,4.32.29,8.63.71,12.94,1,2.85.21,5.71.37,8.63.56.59-3.16,1.92-5.33,5.28-5.41l22-.56a12.69,12.69,0,0,0,2.7-.19,3.58,3.58,0,0,1,4.68,2.56A46.13,46.13,0,0,1-7087.73-7245.39Z" transform="translate(7218.89 7610.82)"/><path class="b" d="M-7158-7415h10.35c3.33,4.5,6.6,9.05,10.07,13.44.56.71,2,.82,3.12.93a27.33,27.33,0,0,0,3.24-.19l53.62-.55a5,5,0,0,0,1.35-.06c.38-.12.91-.41,1-.73.85-3.34,3.47-3.49,6.18-3.59,4.07-.14,8.14-.25,12.19-.62.69-.06,1.62-1.21,1.83-2,.57-2.16.8-4.41,1.17-6.63q31.83,0,63.66,0a15.78,15.78,0,0,1,2.83.52,9.22,9.22,0,0,0-.52,2c-.22,9.88-.39,19.75-.58,29.63-3.32-2.32-6.61-4.68-10-6.93a3.38,3.38,0,0,0-2.37-.69,7.27,7.27,0,0,0-5.07,7.11c0,2.53,0,5.07,0,7.6-3.42-1.06-4.31-3.67-4.44-6.92,0-.79-1-2.2-1.55-2.21a54.76,54.76,0,0,0-7,.66s-.09.33-.09.51v12.93l13.05,2.67V-7355l-22.88-6.55c0-7.55-.19-15.1.1-22.63.1-2.71-.68-4.41-2.83-5.72v-10.15l-5.24-.68c0,4.55-.49,5.35-3.3,5.36-3.92,0-3.42-.12-3.45,3.84h-4.37c0-1.64.06-3.28,0-4.91-.11-2.28.83-3.4,3.19-3.29,1,0,2.1-.08,3.09-.13.72-5.27.72-5.27,5.91-5.32.18,0,.36,0,.54,0,2.05.09,3.17-.54,3.16-2.94s-.91-3.09-3-3.06c-3.72.05-7.44,0-11.16,0-4.42,0-4.73.31-4.94,4.74-.15,3.32-1.13,4.28-4.72,4.5-1.42.09-2.84,0-4.29,0-.12.81-.22,1.25-.25,1.69s0,1,0,1.59h1.51c4.88.06,5.58.78,5.58,5.73,0,.45,0,.91,0,1.36h-4.34l-.22-2.71c-3.63,0-7,.08-10.28,0-2.07-.07-2.79.83-2.58,2.76h-5.46c-.06-1.22-.13-2.44-.17-3.4-19.21,0-38.05-.05-56.9.05-3.46,0-6.56.06-8.52-3.57a7.47,7.47,0,0,0-8.54-4,23.11,23.11,0,0,1-4.33.22c-1.78,0-3.26-.58-3.28-2.74C-7158-7408.36-7158-7411.69-7158-7415Z" transform="translate(7218.89 7610.82)"/><path class="b" d="M-7191.28-7242.11l-.54,12c-4.75-.54-9.49-1.09-14.23-1.6-1.7-.18-1.61,1.06-1.57,2.17.17,4.88.5,9.77.51,14.65,0,38.16-.06,76.31.08,114.47,0,11.68.66,23.35,1,35-7.07,0-7.05,0-7.08-7.08q-.26-66.34-.56-132.69c0-8.07-.41-16.14-.52-24.21-.21-15.88-.44-31.76-.5-47.64,0-7,.35-14,.51-20.93.19-8.71.56-17.41.46-26.11s-.65-17.37-1-26.05c4.95.19,9.95,0,14.84.66,7.3,1,5.7.49,5.79-5.57a2.23,2.23,0,0,0-1.52-1.57c-6.36-.48-12.73-.81-19.11-1.18v-12c5.22-.36,10.43-.82,15.65-1a72.48,72.48,0,0,1,7.77.47,8.66,8.66,0,0,0-.22,1.32q.11,13.24.22,26.47a22.23,22.23,0,0,1-4,.39c-3.33-.21-6.64-.57-9.95-.93-1.93-.22-2.57.58-2.46,2.47.26,4.33.57,8.68.54,13-.08,11.89-.33,23.77-.5,35.65q-.29,20.88-.54,41.78c-.06,6.34,0,6.17,6.52,6.44C-7198.18-7243.53-7194.74-7242.65-7191.28-7242.11Z" transform="translate(7218.89 7610.82)"/><path class="b" d="M-6886.61-7341.37c6.13,4.26,12.3,8.45,18.37,12.78,8.51,6.07,16.95,12.25,25.41,18.4a7,7,0,0,1,.9,1,23.27,23.27,0,0,0-3.19-.51c-7.6-.22-15.21-.27-22.8-.65a12,12,0,0,1-6-1.88c-9.12-6.35-18.23-12.74-27-19.52-3.61-2.79-7.17-1.64-11.48-2,6.65,5,12.6,9.74,18.75,14.15,8,5.73,16.23,11.15,24.24,16.87,2.11,1.51,3.81,2.34,6.25.73,1.65-1.08,3.42-.55,4.95.77,4.36,3.75,8.58,7.7,13.19,11.12,10.45,7.75,21.12,15.19,31.65,22.83,5.62,4.07,11.13,8.29,16.95,12.64l-7.33,4.91c-1.8-1.2-3.65-2.35-5.41-3.61q-19.5-14-39-28-24.73-17.85-49.45-35.74l-32.08-23.19c12.49-.18,25-.34,37.49-.57C-6890.32-7340.9-6888.47-7341.19-6886.61-7341.37Z" transform="translate(7218.89 7610.82)"/><path class="c" d="M-6803.76-7249.72l7.33-4.91c-5.82-4.35-11.33-8.57-16.95-12.64-10.53-7.64-21.2-15.08-31.65-22.83-4.61-3.42-8.83-7.37-13.19-11.12-1.53-1.32-3.3-1.85-4.95-.77-2.44,1.61-4.14.78-6.25-.73-8-5.72-16.23-11.14-24.24-16.87-6.15-4.41-12.1-9.11-18.75-14.15,4.31.33,7.87-.82,11.48,2,8.8,6.78,17.91,13.17,27,19.52a12,12,0,0,0,6,1.88c7.59.38,15.2.43,22.8.65a23.27,23.27,0,0,1,3.19.51l4.37,3.29a14.26,14.26,0,0,1-1.59-.27c-2.19-.63-4.41-1.08-5.55,1.58-1,2.41.58,3.83,2.34,5.11,3.49,2.55,6.95,5.15,10.45,7.7q20.65,15.06,41.29,30.13a2.9,2.9,0,0,0,3.88.07c1.32-.9,2.81-1.56,4.22-2.33l1.65-1.09,6,2.19a9.66,9.66,0,0,0-.52,2.07c-.22,6.68-.43,13.36-.57,20.05-.07,3.53,0,7.07,0,10.6l-1.63.54c-6.5-1.29-10.07,3.79-14.6,6.74-1.74,1.12-3.37,2.41-5,3.62-2-2.41-3.95-4.83-5.91-7.23,2-1.85,3.74-3.38,5.37-5.05s1.64-3.49.15-5.3l-3.95-4.79A6.86,6.86,0,0,0-6803.76-7249.72Z" transform="translate(7218.89 7610.82)"/><path class="b" d="M-6630.44-7368.11l5.44-4.36,3.26,7.92c7.46-4.88,14.64-9.53,21.74-14.3a3.27,3.27,0,0,0,1-2.53c-.18-3.22-.58-6.43-.9-9.64l50.68-37.29v23.64a6.16,6.16,0,0,0-1.24.49c-11,7.36-22.09,14.7-33.09,22.13-6.81,4.59-13.48,9.38-20.28,14-8.29,5.61-16.7,11-25,16.69-8.88,6.05-17.81,12.06-26.41,18.49-2.8,2.09-5,1.8-7.3.2-2.68-1.82-5.13-4-7.69-6l5.43-4.36c1.16,1.12,2.25,2.31,3.49,3.34,1.42,1.18,2.8,1,4.35-.13,5.42-4,10.9-7.94,16.46-11.75,1.44-1,1.33-1.81.71-3.13-.8-1.7-1.42-3.49-2.11-5.24l5.45-3.82c1,2.33,2,4.66,3.1,7.27l5.86-4.16Z" transform="translate(7218.89 7610.82)"/><path class="c" d="M-6886.61-7341.37c-1.86.18-3.71.47-5.57.5-12.5.23-25,.39-37.49.57l-27.25-19.62c0-3.92,0-7.84,0-11.76s-1.76-5.53-5.58-5.74-7.69-.77-11.54-.94c-2.19-.1-4.7-.94-6.33,1.52l-8.17-6c.19-9.88.36-19.75.58-29.63a9.22,9.22,0,0,1,.52-2l13.62,9.81c.19,4.15.42,8.3.54,12.45s1.57,5.38,5.62,5.61c5.93.34,11.84,1,17.76,1.47,1.54.12,2,.71,2.11,2.37.28,6.76.86,13.51,1.2,20.27.12,2.52,1.12,4.25,3.62,4.67,2.3.39,4.66.44,7,.63,5,.4,10.06.77,15.09,1.2,5.61.48,11.22,1,16.84,1.53,5.24,3.8,10.5,7.6,15.73,11.43A16.72,16.72,0,0,1-6886.61-7341.37Z" transform="translate(7218.89 7610.82)"/><path class="b" d="M-6645.16-7166.85l15.82,11.47h-33.55c5.36,4.29,9.89,8.26,14.77,11.73s10.23,6.43,15.26,9.78a2.69,2.69,0,0,0,3.63-.14c2.31-1.74,4.61-3.49,6.94-5.19,2.62-1.91,4.07-1.7,6.87.15q14.81,9.79,29.75,19.41c2.82,1.82,3.29,3.67,1.57,6.55s-3.39,6-4.86,9.06a2.82,2.82,0,0,0,.74,2.53c1.94,1.61,4.1,2.95,6.16,4.42,7.5,5.36,15,10.77,22.5,16.08,3.38,2.39,6.87,4.61,10.32,6.9v8c-2.71-1.92-4.88-3.44-7-5q-18-13-36-26c-1.67-1.21-3.27-2.53-4.89-3.79,1.83-4.79,3.66-9.58,5.54-14.48-8.54-5.64-17.34-11.5-26.22-17.24a2.81,2.81,0,0,0-2.43.28c-2.24,1.53-4.26,3.37-6.53,4.85a31.75,31.75,0,0,1-4.68,2.06l-56.15-40.38a10.94,10.94,0,0,1,2.27-.52C-6672-7166.49-6658.58-7166.66-6645.16-7166.85Z" transform="translate(7218.89 7610.82)"/><path class="b" d="M-6984.15-7081.21l-6.55,4.91v-20.59a33.79,33.79,0,0,0-4.52,1.94,3.35,3.35,0,0,0-1.42,2.27c-.47,7.28-.79,14.56-1.16,21.84a26.75,26.75,0,0,0-3.4,2.63c-2.79,3-6.31,3.05-10,2.84-1.17-.07-2.35,0-3.52,0-.18-7.15-.49-14.3-.53-21.46-.07-15.12,0-30.23,0-45.35q0-20.36,0-40.7c0-5.77.06-11.55,0-17.32-.1-7.84.28-8.26,8.19-8.25h1.09c0,2.18,0,4.37,0,6.55l-2.46.36v83.49l2.45.14c0,2.27.05,4.54,0,6.81s1.11,3.82,3.16,4.88,3.63.51,5.38-.82c4.16-3.18,8.47-6.17,12.71-9.23.37,1.26,1.06,2.52,1.05,3.77C-6983.74-7095.41-6984-7088.31-6984.15-7081.21Z" transform="translate(7218.89 7610.82)"/><path class="c" d="M-6549.24-7074.1c-3.45-2.29-6.94-4.51-10.32-6.9-7.53-5.31-15-10.72-22.5-16.08-2.06-1.47-4.22-2.81-6.16-4.42a2.82,2.82,0,0,1-.74-2.53c1.47-3.09,3.11-6.11,4.86-9.06s1.25-4.73-1.57-6.55q-14.92-9.63-29.75-19.41c-2.8-1.85-4.25-2.06-6.87-.15-2.33,1.7-4.63,3.45-6.94,5.19a2.69,2.69,0,0,1-3.63.14c-5-3.35-10.35-6.28-15.26-9.78s-9.41-7.44-14.77-11.73h33.55c4.43,3.08,8.91,6.11,13.29,9.26q17.51,12.59,34.94,25.26c1.38,1,2.72,2.08,4.08,3.12-.65,1.68-1.21,3.41-2,5-1.08,2.27-.28,3.88,1.61,5.07,4.58,2.88,9.19,5.69,13.81,8.5,4.77,2.9,9.57,5.77,14.35,8.65Z" transform="translate(7218.89 7610.82)"/><path class="c" d="M-7206-7065.39c-.36-11.68-1-23.35-1-35-.14-38.16,0-76.31-.08-114.47,0-4.88-.34-9.77-.51-14.65,0-1.11-.13-2.35,1.57-2.17,4.74.51,9.48,1.06,14.23,1.6q.27,4.09.53,8.19c-7-1.95-9,.9-8.8,6.05.45,11.75.67,23.52.57,35.28-.13,15.93-.65,31.86-1,47.79q-.26,11.4-.54,22.81c-.18,7.51-.44,15-.53,22.54-.09,7.36,0,14.71,0,22.07Z" transform="translate(7218.89 7610.82)"/><path class="b" d="M-6764-7220.83l-5.45-3.83c4-2.84,8-5.78,12.12-8.47,3.67-2.41,7.53-4.55,11.31-6.81,6.6,4.72,13.23,9.4,19.81,14.15q18,13,36,26c8.32,6,16.6,12.13,24.89,18.19-.63-.05-1.26-.11-1.89-.15-4.9-.32-9.79-.73-14.7-.91-2.37-.09-4.64,0-6.68-1.56-4.08-3.13-8.25-6.15-12.39-9.2-15.49-11.4-31-22.72-46.39-34.29-2.38-1.79-3.81-1.4-5.89,0C-6756.75-7225.24-6760.4-7223.09-6764-7220.83Z" transform="translate(7218.89 7610.82)"/><path class="b" d="M-6885.5-7154.29c-4,3.08-7.93,6.23-12,9.24q-25.79,19.17-51.63,38.26-9.36,6.95-18.78,13.82a3.49,3.49,0,0,1-1,.32,60.66,60.66,0,0,1,.69-8.34,8.75,8.75,0,0,1,2.67-4.43c2.76-2.44,5.91-4.42,8.73-6.79a4.78,4.78,0,0,0,1.47-3.12c.16-4.26.06-8.52.06-12.78l7.64-5.46q.4,6.94.79,13.89l.68.49c1.11-1.34,3.17-2.69,3.16-4,0-4.37-.85-8.72-1.36-13.08l16.89-12.54.86,15.9c5.11-3.28,10-6.28,14.78-9.51,6.79-4.62,13.44-9.45,20.2-14.12C-6888.79-7158.53-6886.69-7157.68-6885.5-7154.29Z" transform="translate(7218.89 7610.82)"/><path class="b" d="M-7201.63-7065.38c0-7.36-.07-14.71,0-22.07.09-7.51.35-15,.53-22.54s.37-15.21.54-22.81c.37-15.93.89-31.86,1-47.79.1-11.76-.12-23.53-.57-35.28-.2-5.15,1.8-8,8.8-6.05v6c-1.91-.24-2.26.79-2.19,2.44.24,5.88.56,11.76.53,17.64-.08,16.05-.29,32.1-.52,48.14-.09,7.07-.34,14.13-.53,21.19-.18,6.69-.41,13.39-.53,20.09-.22,12.69-.38,25.38-.56,38.07,0,1,0,2,0,3Z" transform="translate(7218.89 7610.82)"/><path class="b" d="M-6876.25-7160.84l-5.45,3.82c-1.31-3-2.62-6-4-9.31-1.77,1.33-3.16,2.46-4.64,3.46-6.4,4.34-13.15,8.19-18.66,13.77a3.09,3.09,0,0,1-5.23-1.32,63,63,0,0,1-1.24-7.14c6.61-4.85,13.23-9.67,19.82-14.55,7.68-5.68,15.33-11.41,23-17.1l32.4-24c.36,3.84.87,7.68,1,11.53a4.47,4.47,0,0,1-1.92,3c-5,3.56-10.16,6.85-15.14,10.41-7.48,5.35-14.8,10.9-22.3,16.22-1.56,1.11-1.32,2-.7,3.37C-6878.23-7166.08-6877.28-7163.44-6876.25-7160.84Z" transform="translate(7218.89 7610.82)"/><path class="c" d="M-7087.73-7245.39a46.13,46.13,0,0,0-1.07-6.36,3.58,3.58,0,0,0-4.68-2.56,12.69,12.69,0,0,1-2.7.19l-22,.56c-3.36.08-4.69,2.25-5.28,5.41-2.92-.19-5.78-.35-8.63-.56-4.31-.32-8.62-.74-12.94-1-6-.4-12.07-.8-18.11-1.05-3.88-.16-7.78-.12-11.66,0-1.77.05-2.45-.51-2.36-2.32.13-2.34,0-4.7,0-7.55l12.57-.7c.4,1.2.47,2.35,1.07,3,1.1,1.17,2.45,2.83,3.79,2.92,9.62.64,19.25,1,28.88,1.33,5.87.17,6.45-.45,7.43-6.39.9,0,1.87-.12,2.84-.12,7.62,0,15.25-.07,22.87,0,10.33.11,20.66.26,31,.55,7.58.22,15.16.77,22.74,1,2.13.07,2.08,1.23,2,2.66-.08,1.24.54,2.8-1.76,2.87-9.3.29-18.61.7-27.91,1.06h-.55c-6.34-.21-7.38.79-7.37,7.09Z" transform="translate(7218.89 7610.82)"/><path class="b" d="M-6776-7230.11c0-3.53-.06-7.07,0-10.6.14-6.69.35-13.37.57-20.05a9.66,9.66,0,0,1,.52-2.07c3-1.8,6.07-3.39,8.86-5.42,12.36-9,24.63-18.2,36.93-27.32.72-.53,1.44-1.08,2.15-1.62a5.11,5.11,0,0,1-1.67,6.3c-2.93,2.41-5.86,4.82-8.88,7.11-4.67,3.53-4.7,3.48-1.87,8.63,1.16,2.11,2.27,4.37.72,6.63a41,41,0,0,1-5.35,6.46c-1.39,1.31-1.54,2.25-.38,3.58-2.18,1.72-4.26,3.59-6.58,5.09-2.07,1.35-3.25,2.72-2.21,5.32a8,8,0,0,1,.09,2.69,7.71,7.71,0,0,1-1.43,1.78q-8,5.31-16.05,10.48C-6772.28-7232-6774.16-7231.11-6776-7230.11Zm8-29.29,11,7,4.87-4.21c-3.19-4.34-2.95-6.13,1.2-10.31,2.74-2.76,2.74-2.76-.16-5.47Z" transform="translate(7218.89 7610.82)"/><path class="c" d="M-7006-7198.47h-1.09c-7.91,0-8.29.41-8.19,8.25.08,5.77,0,11.55,0,17.32q0,20.35,0,40.7c0,15.12-.08,30.23,0,45.35,0,7.16.35,14.31.53,21.46h-7.11c0-3.09,0-6.18,0-9.27q.26-19.45.56-38.9c.13-7.89.36-15.77.53-23.65q.29-13.05.55-26.09l.54-24.7q.27-11.7.56-23.38a7.19,7.19,0,0,1,.2-1.27H-7006Z" transform="translate(7218.89 7610.82)"/><path class="c" d="M-7053.93-7415c-.37,2.22-.6,4.47-1.17,6.63-.21.8-1.14,2-1.83,2-4,.37-8.12.48-12.19.62-2.71.1-5.33.25-6.18,3.59-.08.32-.61.61-1,.73a5,5,0,0,1-1.35.06l-53.62.55a27.33,27.33,0,0,1-3.24.19c-1.08-.11-2.56-.22-3.12-.93-3.47-4.39-6.74-8.94-10.07-13.44h18c.05,3.45.37,3.8,3.71,3.8h36.22c6.75,0,13.51-.09,20.26.05,2.9.06,3.63-1.42,3.55-3.87Z" transform="translate(7218.89 7610.82)"/><path class="c" d="M-7191.28-7242.11c-3.46-.54-6.9-1.42-10.36-1.57-6.52-.27-6.58-.1-6.52-6.44q.22-20.9.54-41.78c.17-11.88.42-23.76.5-35.65,0-4.33-.28-8.68-.54-13-.11-1.89.53-2.69,2.46-2.47,3.31.36,6.62.72,9.95.93a22.23,22.23,0,0,0,4-.39v9.85c-2.37.2-4.94-.07-7,.8-1.15.49-2.11,2.89-2.13,4.44-.16,14.16,0,28.34-.12,42.51-.06,9.69-.27,19.39-.57,29.09-.08,2.82,1.14,4.28,3.69,4.79,1.85.36,3.75.48,5.63.71a10.53,10.53,0,0,1,2.12.59A31.23,31.23,0,0,1-7187-7248c-.6.85-1.17,1.73-1.8,2.55a3.42,3.42,0,0,1-.85.57C-7192.17-7245.12-7191.26-7243.33-7191.28-7242.11Z" transform="translate(7218.89 7610.82)"/><path class="b" d="M-6904-7354.47c-5.62-.51-11.23-1.05-16.84-1.53-5-.43-10.06-.8-15.09-1.2-2.34-.19-4.7-.24-7-.63-2.5-.42-3.5-2.15-3.62-4.67-.34-6.76-.92-13.51-1.2-20.27-.07-1.66-.57-2.25-2.11-2.37-5.92-.48-11.83-1.13-17.76-1.47-4.05-.23-5.49-1.52-5.62-5.61s-.35-8.3-.54-12.45q10.83,7.71,21.65,15.42,20.85,14.94,41.66,29.91C-6908.32-7357.76-6906.2-7356.1-6904-7354.47Z" transform="translate(7218.89 7610.82)"/><path class="c" d="M-6764-7220.83c3.57-2.26,7.22-4.41,10.7-6.81,2.08-1.44,3.51-1.83,5.89,0,15.36,11.57,30.9,22.89,46.39,34.29,4.14,3.05,8.31,6.07,12.39,9.2,2,1.56,4.31,1.47,6.68,1.56,4.91.18,9.8.59,14.7.91.63,0,1.26.1,1.89.15l3.82,2.72-43.07.55-15.25-10.91a6.17,6.17,0,0,1,.86-1.63c4-4,3.67-6-.43-9.61-7.82-6.92-15.74-13.75-23.81-20.38a5.52,5.52,0,0,0-5-.61c-2.95,1.61-5.48,4-8.18,6.06Z" transform="translate(7218.89 7610.82)"/><path class="c" d="M-6670.22-7338.66c2.56,2,5,4.15,7.69,6,2.35,1.6,4.5,1.89,7.3-.2,8.6-6.43,17.53-12.44,26.41-18.49,8.27-5.64,16.68-11.08,25-16.69,6.8-4.6,13.47-9.39,20.28-14,11-7.43,22-14.77,33.09-22.13a6.16,6.16,0,0,1,1.24-.49c-.69,1.26-1.08,2.94-2.12,3.72q-29,21.54-58.22,42.89c-4.07,3-8.11,6-12.16,9-2.4-1.4-4.52-1.54-6.94.39a92.88,92.88,0,0,1-12.78,9.08,103,103,0,0,0-17.8,13.13,3,3,0,0,1-2.78.4,35.36,35.36,0,0,1-6-4.54,3.66,3.66,0,0,0-5.07-.51,34.77,34.77,0,0,0-3.16,2.54l-17.31,14.27c-.62-2.07-1.18-4-1.74-5.85,2.25-1.78,4.45-3.62,6.73-5.34q8.64-6.49,17.34-12.9A3.28,3.28,0,0,1-6670.22-7338.66Z" transform="translate(7218.89 7610.82)"/><path class="b" d="M-7214.71-7388.31c0-7.87,0-15.75,0-23.62,0-1.49,0-2.56,2.07-2.58,8-.08,16.06-.32,24.08-.5a89.68,89.68,0,0,0-1,9.05c-.06,4.22.26,8.45.48,12.67a21.16,21.16,0,0,0,.52,2.82l-2.71,2.16c-1-.36-2.06-1.06-3.07-1C-7201.13-7389.08-7207.92-7388.67-7214.71-7388.31Z" transform="translate(7218.89 7610.82)"/><path class="c" d="M-6876.25-7160.84c-1-2.6-2-5.24-3.12-7.79-.62-1.4-.86-2.26.7-3.37,7.5-5.32,14.82-10.87,22.3-16.22,5-3.56,10.16-6.85,15.14-10.41a4.47,4.47,0,0,0,1.92-3c-.1-3.85-.61-7.69-1-11.53l12-8.72c.1,1,.2,1.93.3,2.95-1.7,1.29-3.42,2.57-5.13,3.88-2.57,2-3,4.58-1.11,7.07,2.49,3.36,2.49,3.36-.69,6.39-4.38,4.16-4.21,6.72.66,9.72Z" transform="translate(7218.89 7610.82)"/><path class="c" d="M-6705.66-7312.48l4.36-3.27c.66,2.05,1.35,4.1,2,6.16,1.5,5,4.17,5.85,8.09,2.56,6.14-5.17,12.2-10.43,18.39-15.54a3.41,3.41,0,0,1,3-.46c2.34,1.31,4.47,3,6.68,4.55q-20.1,15-40.22,29.95-7.94,5.91-15.91,11.76a10.66,10.66,0,0,1-1.65.84,33.09,33.09,0,0,0-1.77-3c-1.13-1.53-.38-2.45.86-3.34,4.4-3.15,8.85-6.23,13.14-9.53A53.28,53.28,0,0,0-6702-7298a3.84,3.84,0,0,0,.5-4.92A96.26,96.26,0,0,1-6705.66-7312.48Z" transform="translate(7218.89 7610.82)"/><path class="b" d="M-6663.15-7318.48c-2.21-1.54-4.34-3.24-6.68-4.55a3.41,3.41,0,0,0-3,.46c-6.19,5.11-12.25,10.37-18.39,15.54-3.92,3.29-6.59,2.41-8.09-2.56-.62-2.06-1.31-4.11-2-6.16q3-2.17,6-4.36c.56,1.89,1.12,3.78,1.74,5.85l17.31-14.27a34.77,34.77,0,0,1,3.16-2.54,3.66,3.66,0,0,1,5.07.51,35.36,35.36,0,0,0,6,4.54,3,3,0,0,0,2.78-.4,103,103,0,0,1,17.8-13.13,92.88,92.88,0,0,0,12.78-9.08c2.42-1.93,4.54-1.79,6.94-.39q-13,9.69-26.1,19.37C-6652.92-7325.89-6658-7322.2-6663.15-7318.48Z" transform="translate(7218.89 7610.82)"/><path class="b" d="M-6782.52-7263.93c-1.41.77-2.9,1.43-4.22,2.33a2.9,2.9,0,0,1-3.88-.07q-20.6-15.12-41.29-30.13c-3.5-2.55-7-5.15-10.45-7.7-1.76-1.28-3.37-2.7-2.34-5.11,1.14-2.66,3.36-2.21,5.55-1.58a14.26,14.26,0,0,0,1.59.27l11.46,8.18-2.06.15a6.24,6.24,0,0,0,.83,1q19.29,14,38.6,27.92C-6786.63-7267.13-6784.59-7265.51-6782.52-7263.93Z" transform="translate(7218.89 7610.82)"/><path class="b" d="M-6705.66-7312.48a96.26,96.26,0,0,0,4.12,9.6,3.84,3.84,0,0,1-.5,4.92,53.28,53.28,0,0,1-6.66,6.17c-4.29,3.3-8.74,6.38-13.14,9.53-1.24.89-2,1.81-.86,3.34a33.09,33.09,0,0,1,1.77,3l-14.7,10.9c-1.39-3.76.22-6.17,3.44-8a37.15,37.15,0,0,0,3.68-2.7,9.8,9.8,0,0,0-.66-1.1c-4.89-6.32-3.17-7,1.08-11.82.11-.14.29-.24.37-.39,1.6-3.35,6.46-5.42,4.06-10.34l4.38-3.29c1.51,2.09,3,4.17,4.53,6.27,5.93-4.13,5.93-4.13,3.54-10.73-.12-.34-.29-.65-.44-1Z" transform="translate(7218.89 7610.82)"/><path class="c" d="M-7158-7415c0,3.33,0,6.66,0,10,0,2.16,1.5,2.71,3.28,2.74a23.11,23.11,0,0,0,4.33-.22,7.47,7.47,0,0,1,8.54,4c2,3.63,5.06,3.58,8.52,3.57,18.85-.1,37.69-.05,56.9-.05,0,1,.11,2.18.17,3.4h-67.56c-.22-1.32-.44-2.65-.68-4-.47-2.6-2.37-3.17-4.6-3.1-4.14.13-8.27.4-12.4.5-3.73.08-4.06-.27-4.12-4.14-.07-4.25,0-8.5,0-12.75Z" transform="translate(7218.89 7610.82)"/><path class="c" d="M-7214.71-7388.31c6.79-.36,13.58-.77,20.37-1,1,0,2,.66,3.07,1q0,9,0,18a72.48,72.48,0,0,0-7.77-.47c-5.22.2-10.43.66-15.65,1Z" transform="translate(7218.89 7610.82)"/><path class="c" d="M-6915.5-7157.56a63,63,0,0,0,1.24,7.14,3.09,3.09,0,0,0,5.23,1.32c5.51-5.58,12.26-9.43,18.66-13.77,1.48-1,2.87-2.13,4.64-3.46,1.41,3.27,2.72,6.29,4,9.31l-3.8,2.73c-1.19-3.39-3.29-4.24-6.15-2.27-6.76,4.67-13.41,9.5-20.2,14.12-4.75,3.23-9.67,6.23-14.78,9.51l-.86-15.9Z" transform="translate(7218.89 7610.82)"/><path class="d" d="M-7032.13-7244.84l6.93.64c.06,1.05.16,1.93.15,2.8q-.26,20.3-.56,40.58c-.13,8.43-.35,16.86-.53,25.3q-.54,25.16-1.09,50.3-.27,12.24-.55,24.46-.26,10.59-.55,21.19a16.62,16.62,0,0,1-.51-2.84q0-39.39,0-78.79v-82.61Z" transform="translate(7218.89 7610.82)"/><path class="b" d="M-6801.58-7241.58l3.95,4.79c1.49,1.81,1.48,3.64-.15,5.3s-3.39,3.2-5.37,5.05c2,2.4,3.93,4.82,5.91,7.23l-19.6,14.18a26.9,26.9,0,0,0-1.27-2.65c-2.06-3.34-1.73-5,1.61-7.21,2.22-1.49,4.48-2.94,6.91-4.54-.8-1.21-1.57-2.3-2.26-3.45-1.75-2.89-1.59-3.68,1.05-6l6.41-5.56-2.63-3.34Z" transform="translate(7218.89 7610.82)"/><path class="c" d="M-7195.1-7065.39c0-1,0-2,0-3,.18-12.69.34-25.38.56-38.07.12-6.7.35-13.4.53-20.09.19-7.06.44-14.12.53-21.19.23-16,.44-32.09.52-48.14,0-5.88-.29-11.76-.53-17.64-.07-1.65.28-2.68,2.19-2.44-.12,3-.35,6.05-.34,9.07,0,8.58.08,17.16.15,25.74,0,5.43.2,10.86.17,16.29,0,7.34-.22,14.67-.28,22q-.06,8.76,0,17.51c0,5.16.28,10.31.26,15.47,0,8-.25,15.95-.32,23.92-.06,6.68,0,13.35,0,20.39Z" transform="translate(7218.89 7610.82)"/><path class="b" d="M-6756.36-7215.38c2.7-2.07,5.23-4.45,8.18-6.06a5.52,5.52,0,0,1,5,.61c8.07,6.63,16,13.46,23.81,20.38,4.1,3.63,4.43,5.63.43,9.61a6.17,6.17,0,0,0-.86,1.63l-5.46-3.81c1.11-1.78.79-3.1-.87-4.5-5.67-4.73-11.3-9.5-16.76-14.47-2.41-2.18-4.42-2.66-6.78-.2a4.22,4.22,0,0,1-1.19.63Z" transform="translate(7218.89 7610.82)"/><path class="c" d="M-6631.53-7125.37a31.75,31.75,0,0,0,4.68-2.06c2.27-1.48,4.29-3.32,6.53-4.85a2.81,2.81,0,0,1,2.43-.28c8.88,5.74,17.68,11.6,26.22,17.24-1.88,4.9-3.71,9.69-5.54,14.48l-7.07-4.89c5.24-4,5.51-7.05.42-10.36-3.92-2.55-7.48-5.64-11.28-8.39-.89-.63-2.34-1.43-3.12-1.11-2.71,1.1-5.24,2.65-7.84,4Z" transform="translate(7218.89 7610.82)"/><path class="c" d="M-6807-7237.75l2.63,3.34-6.41,5.56c-2.64,2.29-2.8,3.08-1.05,6,.69,1.15,1.46,2.24,2.26,3.45-2.43,1.6-4.69,3.05-6.91,4.54-3.34,2.25-3.67,3.87-1.61,7.21a26.9,26.9,0,0,1,1.27,2.65l-10.36,7.65c4.34-4.52,3.77-8.9-.86-13.1,2-1.67,3.68-3.17,5.48-4.46,1.61-1.13,2.4-2.61,1.85-4.39a68.8,68.8,0,0,0-2.65-6.42Z" transform="translate(7218.89 7610.82)"/><path class="c" d="M-6955.29-7128.11c0,4.26.1,8.52-.06,12.78a4.78,4.78,0,0,1-1.47,3.12c-2.82,2.37-6,4.35-8.73,6.79a8.75,8.75,0,0,0-2.67,4.43,60.66,60.66,0,0,0-.69,8.34l-2.16,1.63c-.19-4.75-.23-9.52-.62-14.25-.28-3.27-1-6.49-1.59-9.74,1.79-1.34,3.57-2.69,5.38-4C-6963.71-7122.06-6959.5-7125.08-6955.29-7128.11Z" transform="translate(7218.89 7610.82)"/><path class="b" d="M-6704.58-7178.3l43.07-.55,8.16,6c-3.23.19-6.47.42-9.71.53-6.4.23-12.8.44-19.21.56-4.52.08-9,0-13.57,0Q-6700.22-7175-6704.58-7178.3Z" transform="translate(7218.89 7610.82)"/><path class="b" d="M-6823.38-7225.75a68.8,68.8,0,0,1,2.65,6.42c.55,1.78-.24,3.26-1.85,4.39-1.8,1.29-3.45,2.79-5.48,4.46,4.63,4.2,5.2,8.58.86,13.1l-7.08,5.47c-4.87-3-5-5.56-.66-9.72,3.18-3,3.18-3,.69-6.39-1.86-2.49-1.46-5.08,1.11-7.07,1.71-1.31,3.43-2.59,5.13-3.88-.1-1-.2-2-.3-2.95Z" transform="translate(7218.89 7610.82)"/><path class="c" d="M-6599.92-7391c.32,3.21.72,6.42.9,9.64a3.27,3.27,0,0,1-1,2.53c-7.1,4.77-14.28,9.42-21.74,14.3l-3.26-7.92Z" transform="translate(7218.89 7610.82)"/><path class="b" d="M-6549.24-7090.49c-4.78-2.88-9.58-5.75-14.35-8.65-4.62-2.81-9.23-5.62-13.81-8.5-1.89-1.19-2.69-2.8-1.61-5.07.77-1.62,1.33-3.35,2-5q8.13,5.81,16.24,11.62a90.56,90.56,0,0,0,8.13,5.8c3,1.68,3.85,4,3.44,7.12A20.41,20.41,0,0,0-6549.24-7090.49Z" transform="translate(7218.89 7610.82)"/><path class="c" d="M-7177.67-7415h7.66c.18,2.33.43,4.67.51,7,.09,2.63,0,5.26,0,7.89.1,4.61,1.34,5.82,5.84,5.82,3.09,0,6.17,0,9.25,0s6.4-.7,7.79,3.27a27,27,0,0,0-4-.48c-3.09.07-6.18.42-9.27.46-5.25.07-10.51,0-15.77-.05a6,6,0,0,1-1.52-.47Q-7177.39-7403.28-7177.67-7415Z" transform="translate(7218.89 7610.82)"/><path class="c" d="M-6695.84-7171.74c4.52,0,9.05.06,13.57,0,6.41-.12,12.81-.33,19.21-.56,3.24-.11,6.48-.34,9.71-.53l8.19,6c-13.42.19-26.83.36-40.25.58a10.94,10.94,0,0,0-2.27.52Z" transform="translate(7218.89 7610.82)"/><path class="b" d="M-7065.93-7415c.08,2.45-.65,3.93-3.55,3.87-6.75-.14-13.51-.05-20.26-.05H-7126c-3.34,0-3.66-.35-3.71-3.8Z" transform="translate(7218.89 7610.82)"/><path class="b" d="M-6626.1-7121.57c2.6-1.37,5.13-2.92,7.84-4,.78-.32,2.23.48,3.12,1.11,3.8,2.75,7.36,5.84,11.28,8.39,5.09,3.31,4.82,6.32-.42,10.36Z" transform="translate(7218.89 7610.82)"/><path class="c" d="M-6776-7230.11c1.81-1,3.69-1.9,5.43-3q8.07-5.16,16.05-10.48a7.71,7.71,0,0,0,1.43-1.78l7.07,5.44c-3.78,2.26-7.64,4.4-11.31,6.81-4.13,2.69-8.09,5.63-12.12,8.47l-8.18-4.91Z" transform="translate(7218.89 7610.82)"/><path class="b" d="M-6973.28-7115c.55,3.25,1.31,6.47,1.59,9.74.39,4.73.43,9.5.62,14.25l-7.64,6-1.65-24.53Z" transform="translate(7218.89 7610.82)"/><path class="c" d="M-6723.66-7299.38c2.4,4.92-2.46,7-4.06,10.34-.08.15-.26.25-.37.39-4.25,4.84-6,5.5-1.08,11.82a9.8,9.8,0,0,1,.66,1.1,37.15,37.15,0,0,1-3.68,2.7c-3.22,1.83-4.83,4.24-3.44,8l-8.73,6.55c-1.16-1.33-1-2.27.38-3.58a41,41,0,0,0,5.35-6.46c1.55-2.26.44-4.52-.72-6.63-2.83-5.15-2.8-5.1,1.87-8.63,3-2.29,5.95-4.7,8.88-7.11a5.11,5.11,0,0,0,1.67-6.3Z" transform="translate(7218.89 7610.82)"/><path class="c" d="M-6641.89-7359.93c.69,1.75,1.31,3.54,2.11,5.24.62,1.32.73,2.14-.71,3.13-5.56,3.81-11,7.75-16.46,11.75-1.55,1.14-2.93,1.31-4.35.13-1.24-1-2.33-2.22-3.49-3.34Z" transform="translate(7218.89 7610.82)"/><path class="c" d="M-7188.56-7390.47a21.16,21.16,0,0,1-.52-2.82c-.22-4.22-.54-8.45-.48-12.67a89.68,89.68,0,0,1,1-9.05h6.58q.54,12,1.09,24C-7183.47-7391-7186.1-7391.86-7188.56-7390.47Z" transform="translate(7218.89 7610.82)"/><path class="b" d="M-7146.58-7391c-1.39-4-4.71-3.29-7.79-3.27s-6.16,0-9.25,0c-4.5,0-5.74-1.21-5.84-5.82-.07-2.63.05-5.26,0-7.89-.08-2.34-.33-4.68-.51-7h4.34c0,4.25,0,8.5,0,12.75.06,3.87.39,4.22,4.12,4.14,4.13-.1,8.26-.37,12.4-.5,2.23-.07,4.13.5,4.6,3.1.24,1.32.46,2.65.68,4Z" transform="translate(7218.89 7610.82)"/><path class="c" d="M-7214.71-7357.76c6.38.37,12.75.7,19.11,1.18a2.23,2.23,0,0,1,1.52,1.57c-.09,6.06,1.51,6.56-5.79,5.57-4.89-.66-9.89-.47-14.84-.66Z" transform="translate(7218.89 7610.82)"/><path class="c" d="M-6997.8-7070.84c.37-7.28.69-14.56,1.16-21.84a3.35,3.35,0,0,1,1.42-2.27,33.79,33.79,0,0,1,4.52-1.94v20.59Z" transform="translate(7218.89 7610.82)"/><path class="c" d="M-6750.89-7211.56a4.22,4.22,0,0,0,1.19-.63c2.36-2.46,4.37-2,6.78.2,5.46,5,11.09,9.74,16.76,14.47,1.66,1.4,2,2.72.87,4.5Z" transform="translate(7218.89 7610.82)"/><path class="c" d="M-6782.52-7263.93c-2.07-1.58-4.11-3.2-6.21-4.72q-19.29-14-38.6-27.92a6.24,6.24,0,0,1-.83-1l2.06-.15c2.45,1.64,5,3.21,7.35,4.94q17.19,12.42,34.34,24.92c1.23.89,2.36,1.9,3.54,2.86Z" transform="translate(7218.89 7610.82)"/><path class="c" d="M-6980.36-7109.56l1.65,24.53-5.44,3.82c.18-7.1.41-14.2.48-21.31,0-1.25-.68-2.51-1.05-3.77Z" transform="translate(7218.89 7610.82)"/><path class="e" d="M-7180.91-7391q-.54-12-1.09-24h4.33q.29,11.72.55,23.44Z" transform="translate(7218.89 7610.82)"/><path class="c" d="M-6711.65-7308.11c.15.33.32.64.44,1,2.39,6.6,2.39,6.6-3.54,10.73-1.51-2.1-3-4.18-4.53-6.27Z" transform="translate(7218.89 7610.82)"/><path class="c" d="M-6630.44-7368.11l3,7.47-5.86,4.16c-1.11-2.61-2.1-4.94-3.1-7.27Z" transform="translate(7218.89 7610.82)"/><path class="f" d="M-7189.64-7244.84a3.42,3.42,0,0,0,.85-.57c.63-.82,1.2-1.7,1.8-2.55a31.23,31.23,0,0,0-2.71-1.75,10.53,10.53,0,0,0-2.12-.59c1.77.05,3.55,0,5.31.22.29,0,.58,1.13.66,1.76a26,26,0,0,1,0,2.93Z" transform="translate(7218.89 7610.82)"/><path class="g" d="M-6795.59-7572.66l16.73-31.56c2.75,5.12,5.28,9.8,7.8,14.49q28.13,52.36,56.28,104.71a7,7,0,0,1,.55,6.31c-8.16,23.53-16.17,47.11-24.23,70.67a3.4,3.4,0,0,1-.42.67,18.56,18.56,0,0,1-.55-3.09q0-17.84,0-35.67v-3.26h-20.61l-1.76-3.81a21.91,21.91,0,0,1,3.16-.52c3-.08,6-.05,9,0,1.24,0,2.19-.17,2.06-1.73-.3-3.86-.61-7.72-.89-11.58-.12-1.62-1-2-2.51-2-4.67.09-9.33.07-14,0-1.6,0-3.2-.34-4.81-.52l-1.34-3.05c.41-.34.81-1,1.22-1q6.21-.13,12.44-.08c4.32,0,8.66.08,13,.3,2.52.12,3.41-.55,3.46-3.14q.16-8.43.35-16.85a4.91,4.91,0,0,0-4.53-4.89q-8.52-.19-17-.18a46.78,46.78,0,0,0-5.11.51c-1.54.17-2.14-.53-2-2,.21-2.79.36-5.59.53-8.38.37-.83.77-1.64,1.1-2.48a12.69,12.69,0,0,0-3.06-14A12.8,12.8,0,0,0-6785-7527c-4.4,2.12-6.42,5.9-7.23,10.51a4.91,4.91,0,0,1-3.79-4.76,133.72,133.72,0,0,1-.57-13.42C-6796.38-7547.33-6795.95-7560-6795.59-7572.66Z" transform="translate(7218.89 7610.82)"/><path class="g" d="M-6834.28-7452.66c-3.26-9.37-6.53-18.74-9.73-28.13a3.13,3.13,0,0,1,.19-2.25c3.84-7.17,7.75-14.31,11.65-21.46,3.82-3.16,7.07-6.63,6.53-12.14l7-13c4.57.22,5.61,1.36,5.67,5.93.16,12.57.39,25.14.5,37.72,0,1.83.67,2.3,2.38,2.28,7.16-.07,14.31,0,21.47,0,3.85,0,5,1.13,5.11,5q-9.25,19.34-18.5,38.67c-1.5.53-3,1.43-4.51,1.5-2.67.13-5.36-.37-8.05-.41-5.54-.07-6.64-1.06-7.13-6.74s-.66-5.83-6.42-5.83a22.94,22.94,0,0,1-3.52,0A11.45,11.45,0,0,1-6834.28-7452.66Z" transform="translate(7218.89 7610.82)"/><path class="h" d="M-6783.56-7478.76c-.14-3.85-1.26-5-5.11-5-7.16,0-14.31-.05-21.47,0-1.71,0-2.37-.45-2.38-2.28-.11-12.58-.34-25.15-.5-37.72-.06-4.57-1.1-5.71-5.67-5.93q9-16.89,18-33.78c1.66-3.1,3.4-6.16,5.11-9.23-.36,12.67-.79,25.33-1,38a133.72,133.72,0,0,0,.57,13.42,4.91,4.91,0,0,0,3.79,4.76c.09,5.17,2,9.36,6.66,11.92,5.75,3.14,11.28,1.84,16.69-3.81-.17,2.79-.32,5.59-.53,8.38-.11,1.52.49,2.22,2,2a46.78,46.78,0,0,1,5.11-.51q8.52,0,17,.18a4.91,4.91,0,0,1,4.53,4.89q-.18,8.41-.35,16.85c-.05,2.59-.94,3.26-3.46,3.14-4.32-.22-8.66-.26-13-.3q-6.22,0-12.44.08c-.41,0-.81.64-1.22,1-2.45-4.67-4.91-9.33-7.56-14.37C-6780.57-7483.86-6782.06-7481.31-6783.56-7478.76Z" transform="translate(7218.89 7610.82)"/><path class="g" d="M-6762.31-7339.13q-5.05,15-10.13,30.08c-2,6-4.11,12-6.38,18.56-2.59-7.46-5-14.29-7.34-21.15q-17.9-52.26-35.76-104.53a13.81,13.81,0,0,1-.38-1.57c.7-.36,1.4-1.05,2.09-1,2.51.05,5,.28,7.53.54,3.25.33,4,1.18,4,4.51,0,2.4,0,4.81,0,6.89,3.32,0,6.2-.17,9,.07,1.39.12,2.72,1,4.08,1.56a1.46,1.46,0,0,1,.28.45c3.17,15.24,6.24,30.51,9.54,45.73,1.86,8.64,4.09,17.2,6.16,25.8l.87-.1,2.13-5.89c3.27-.32,6.54-.78,9.82-.91C-6765.27-7340.18-6763.33-7341.41-6762.31-7339.13Z" transform="translate(7218.89 7610.82)"/><path class="h" d="M-6762.31-7339.13c-1-2.28-3-1.05-4.44-1-3.28.13-6.55.59-9.82.91.75-2.69,1.65-5.35,2.22-8.08,5.43-25.85,10.68-51.73,16.26-77.54,1.84-8.5,3.8-16.77-2-24.55h20.61v3.26q0,17.84,0,35.67a18.56,18.56,0,0,0,.55,3.09c-3,8.91-6,17.84-9,26.74q-6.73,19.8-13.54,39.56A20,20,0,0,1-6762.31-7339.13Z" transform="translate(7218.89 7610.82)"/><path class="h" d="M-6795.55-7405.21c-1.36-.55-2.69-1.44-4.08-1.56-2.84-.24-5.72-.07-9-.07,0-2.08,0-4.49,0-6.89,0-3.33-.76-4.18-4-4.51-2.5-.26-5-.49-7.53-.54-.69,0-1.39.68-2.09,1q-4.89-14-9.77-28c-.79-2.29-1.48-4.62-2.21-6.93a11.45,11.45,0,0,0,2.59,1.05,22.94,22.94,0,0,0,3.52,0c5.76,0,5.92.15,6.42,5.83s1.59,6.67,7.13,6.74c2.69,0,5.38.54,8.05.41,1.52-.07,3-1,4.51-1.5.42,2.94.71,5.91,1.28,8.82C-6799.09-7422.57-6797.3-7413.9-6795.55-7405.21Z" transform="translate(7218.89 7610.82)"/><path class="i" d="M-6825.64-7516.64c.54,5.51-2.71,9-6.53,12.14Q-6828.9-7510.56-6825.64-7516.64Z" transform="translate(7218.89 7610.82)"/><path class="g" d="M-6620.14-7481.16l4.4-2.27c-.83,7-1.58,13.57-2.38,20.12-1.55,12.71-3.09,25.42-4.76,38.11a6.18,6.18,0,0,1-1.91,3.6c-6.62,5.53-13.36,10.91-20.07,16.33q-29.52,23.79-59.06,47.56c-4.92,3.95-9.9,7.82-14.87,11.7-.31.24-.81.24-1.61-.09,2.73-3.21,5.44-6.44,8.19-9.64,8.59-10,17.36-19.81,25.66-30,2-2.42,2.73-6,3.49-9.22,1.34-5.64,2.37-11.36,3.26-17.09.21-1.39-.19-3.67-1.12-4.27a3.9,3.9,0,0,0-5.32,1c-1.75,2.06-3.82,3.86-5.75,5.77-.56-.85-1.54-1.66-1.61-2.55q-.51-6.32-.56-12.66c0-1.85,1-2.91,3.12-2.85,3.66.12,7.33,0,11,0,2.45,0,3,.83,2.69,3.14a6.5,6.5,0,0,0,.56,2.31c2.5,5.25,5.92,6.88,11.13,5.31,7.28-2.2,15.09-12.08,15.61-19.71.21-3.19-.31-6.13-2.76-8.45,8-9.06,16.05-18.14,24.13-27.16C-6625.92-7475.21-6623-7478.15-6620.14-7481.16Z" transform="translate(7218.89 7610.82)"/><path class="h" d="M-6620.14-7481.16c-2.85,3-5.78,5.95-8.54,9-8.08,9-16.09,18.1-24.13,27.16-4.54-3-8.87-1.86-12.83,1-7.37,5.35-12,12.22-11.15,21.84a6.5,6.5,0,0,1-.56-2.31c.34-2.31-.24-3.12-2.69-3.14-3.67,0-7.34.08-11,0-2.12-.06-3.14,1-3.12,2.85q.06,6.34.56,12.66c.07.89,1.05,1.7,1.61,2.55-4.5,4.73-8.75,9.72-13.55,14.13-6.33,5.82-10.55,13-14.58,20.39s-8.29,14.68-12.46,22a2.22,2.22,0,0,1-1.56,1.1q2.4-5.85,4.82-11.69,16.78-40.3,33.55-80.61a6.51,6.51,0,0,1,3.53-3.8c15.82-7.24,31.58-14.6,47.37-21.89C-6636.64-7473.7-6628.38-7477.41-6620.14-7481.16Z" transform="translate(7218.89 7610.82)"/><path class="h" d="M-6705.68-7370.37l-4.91,5.44c-2.29-.86-3.89-.63-3.94,2.35a27,27,0,0,1-.43,3.2l-2,2.19-7.23-1.11q3.86-6.82,7.72-13.64c2.43,0,4.88-.15,7.29.09C-6708-7371.73-6706.85-7370.89-6705.68-7370.37Z" transform="translate(7218.89 7610.82)"/><path class="j" d="M-6719.81-7353.9l-18.15,21-.69-.55,13.83-23.84C-6723.06-7356.27-6720.3-7356.79-6719.81-7353.9Z" transform="translate(7218.89 7610.82)"/><path class="k" d="M-6696.93-7380.64c-1.5,1.82-3,3.63-4.49,5.45l-3.14-.06-.54-7.56c.12-4.31.19-4.37,5.36-4.43,3.19.29,4,1.44,3.34,4.52C-6696.56-7382-6696.75-7381.33-6696.93-7380.64Z" transform="translate(7218.89 7610.82)"/><path class="l" d="M-6699.74-7387.24c-5.17.06-5.24.12-5.36,4.43l-5.52,0c1.77-2,3.49-4.09,5.33-6,3.28-3.46,6.64-6.84,10-10.25,0,1.08.06,2.15.08,3.23,0,.72,0,1.44,0,2.16C-6695.25-7388.69-6695.25-7388.69-6699.74-7387.24Z" transform="translate(7218.89 7610.82)"/><path class="m" d="M-6695.24-7395.91c0-1.08-.05-2.15-.08-3.23l9.82-10.35.7.24-2.94,13.88C-6690.26-7395.28-6692.95-7392.69-6695.24-7395.91Z" transform="translate(7218.89 7610.82)"/><path class="n" d="M-6695.24-7395.91c2.29,3.22,5,.63,7.5.54a11.68,11.68,0,0,1-3.29,8c-2.11,2.09-3.95,4.46-5.9,6.7.18-.69.37-1.38.53-2.08.7-3.08-.15-4.23-3.34-4.52,4.49-1.45,4.49-1.45,4.48-6.51C-6695.26-7394.47-6695.24-7395.19-6695.24-7395.91Z" transform="translate(7218.89 7610.82)"/><path class="h" d="M-6710.62-7382.86l5.52,0,.54,7.56-9.86-.46Z" transform="translate(7218.89 7610.82)"/><path class="o" d="M-6714.42-7375.71l9.86.46,3.14.06-4.26,4.82c-1.17-.52-2.32-1.36-3.53-1.48-2.41-.24-4.86-.08-7.29-.09Z" transform="translate(7218.89 7610.82)"/><path class="p" d="M-6715-7359.38a27,27,0,0,0,.43-3.2c.05-3,1.65-3.21,3.94-2.35Z" transform="translate(7218.89 7610.82)"/><path class="q" d="M-6719.81-7353.9c-.49-2.89-3.25-2.37-5-3.34l.6-1.06,7.23,1.11Z" transform="translate(7218.89 7610.82)"/><path class="g" d="M-6876.18-7453.78l3.27,1.48c.16,2,.35,3.94.46,5.91.39,6.93.71,13.87,1.16,20.79a2.4,2.4,0,0,0,1.36,1.76,17.69,17.69,0,0,0,4.8.59,2.67,2.67,0,0,1,3,2.45c.57,2.64,1.27,5.26,1.61,7.93a57.33,57.33,0,0,1,.11,6.56c-2.92-3-5.95-5.85-8.72-9a4.08,4.08,0,0,0-5.33-1.12c-.9.51-1.43,2.69-1.21,4q1.93,11.24,4.4,22.39a10.74,10.74,0,0,0,2.38,4.49q17.84,20.74,35.82,41.38a4.76,4.76,0,0,1,1.21,2.28c-3-2.41-6.1-4.81-9.12-7.24q-44.6-36-89.23-71.92a6.24,6.24,0,0,1-2.55-4.48q-2.43-20.55-4.94-41.08c-.66-5.39-1.31-10.79-2.05-16.84l11.73,5.68c.35.63.65,1.29,1.06,1.88,4.34,6.18,8.74,12.31,13,18.53,2.69,3.92,5.19,8,7.78,12-3.71,2.8-4.9,6.56-4.16,11.05a23.82,23.82,0,0,0,12.37,17.55c6.41,3.64,12,1.81,15.19-4.79.7-1.76,2-2.16,3.85-2.23,3.79-.14,4.07-.79,3.48-4.44-.48-2.91-.6-5.89-.81-8.84-.36-4.82-.73-9.65-1-14.49C-6877.23-7452.29-6876.54-7453-6876.18-7453.78Z" transform="translate(7218.89 7610.82)"/><path class="h" d="M-6860.41-7406.31a57.33,57.33,0,0,0-.11-6.56c-.34-2.67-1-5.29-1.61-7.93a2.67,2.67,0,0,0-3-2.45,17.69,17.69,0,0,1-4.8-.59,2.4,2.4,0,0,1-1.36-1.76c-.45-6.92-.77-13.86-1.16-20.79-.11-2-.3-3.94-.46-5.91,3.63,1.63,7.28,3.21,10.87,4.94a3.93,3.93,0,0,1,1.73,1.89q19.56,46.76,39,93.54c.05.14-.05.34-.19,1.16-.72-1.17-1.21-1.92-1.65-2.69-5.9-10.49-11.55-21.13-17.82-31.39-2.54-4.17-6.4-7.55-9.74-11.21C-6853.87-7399.53-6857.17-7402.9-6860.41-7406.31Z" transform="translate(7218.89 7610.82)"/><path class="h" d="M-6876.18-7453.78c-.36.74-1,1.49-1,2.21.23,4.84.6,9.67,1,14.49.21,2.95.33,5.93.81,8.84.59,3.65.31,4.3-3.48,4.44-1.81.07-3.15.47-3.85,2.23,1.09-7.92-1.92-14.36-7.48-19.68-4.46-4.28-9.57-6.78-15.92-4.13-2.59-4-5.09-8.06-7.78-12-4.28-6.22-8.68-12.35-13-18.53-.41-.59-.71-1.25-1.06-1.88,9.77,4.46,19.56,8.88,29.32,13.38C-6891.17-7460.91-6883.69-7457.32-6876.18-7453.78Z" transform="translate(7218.89 7610.82)"/><path class="r" d="M-6839.6-7373.08l20.17,35.34c.55,1,1,2,1.56,3l-.77.57q-12.39-14.19-24.79-28.39a7.48,7.48,0,0,0,.92-2.24c.13-2.34.07-4.68.09-7Z" transform="translate(7218.89 7610.82)"/><path class="k" d="M-6856.15-7377.78l-7-8.31,0-6.12c-.2-1.73-.4-3.45-.64-5.44h-4.19q-1.32-5.58-2.65-11.16l.74-.59c4.54,4.56,9,9.2,13.35,14l.56,10.43Z" transform="translate(7218.89 7610.82)"/><path class="r" d="M-6856.15-7377.78l.09-7.2c.7-1.87,2.13-2.36,4-2.29a20.48,20.48,0,0,0,3.09-.36q2.68,3.49,5.39,7l-2.7,2.71c-.72.94-1.89,1.8-2.06,2.83a41.68,41.68,0,0,0-.15,6.33Z" transform="translate(7218.89 7610.82)"/><path class="s" d="M-6848.5-7368.78a41.68,41.68,0,0,1,.15-6.33c.17-1,1.34-1.89,2.06-2.83,3.82,0,3.82,0,3.83,3.92,0,.72,0,1.44,0,2.16,0,2.34,0,4.68-.09,7a7.48,7.48,0,0,1-.92,2.24Z" transform="translate(7218.89 7610.82)"/><path class="t" d="M-6849-7387.63a20.48,20.48,0,0,1-3.09.36c-1.86-.07-3.29.42-4,2.29q-.28-5.2-.56-10.43Q-6852.81-7391.51-6849-7387.63Z" transform="translate(7218.89 7610.82)"/><path class="u" d="M-6868.06-7397.65h4.19c.24,2,.44,3.71.64,5.44l-3.37,1.77Q-6867.32-7394.05-6868.06-7397.65Z" transform="translate(7218.89 7610.82)"/><path class="v" d="M-6842.42-7371.86c0-.72,0-1.44,0-2.16,0-3.88,0-3.88-3.83-3.92l2.7-2.71,4,7.57Z" transform="translate(7218.89 7610.82)"/><path class="w" d="M-6866.6-7390.44l3.37-1.77c0,2,0,4.08,0,6.12Z" transform="translate(7218.89 7610.82)"/><path class="a" d="M-6980.36-7109.56l-4.36,3.27c-4.24,3.06-8.55,6.05-12.71,9.23-1.75,1.33-3.3,1.9-5.38.82s-3.22-2.5-3.16-4.88,0-4.54,0-6.81q0-42,0-84c0-2.18,0-4.37,0-6.55v-55.08q0-12,0-24v-34.4q0-7.89,0-15.79v-48c0-2.53,0-5.07,0-7.6a7.27,7.27,0,0,1,5.07-7.11,3.38,3.38,0,0,1,2.37.69c3.37,2.25,6.66,4.61,10,6.93l8.17,6,23.45,16.92,27.25,19.62,32.08,23.19q24.72,17.86,49.45,35.74,19.47,14.05,39,28c1.76,1.26,3.61,2.41,5.41,3.61a6.86,6.86,0,0,1,2.18,8.14l-5.44,3.83-16.36,12-4.93,3.83-12,8.72-32.4,24c-7.67,5.69-15.32,11.42-23,17.1-6.59,4.88-13.21,9.7-19.82,14.55l-12,8.73-16.89,12.54-3.27,2.72-7.64,5.46c-4.21,3-8.42,6-12.61,9.1-1.81,1.31-3.59,2.66-5.38,4Zm175.16-135.3L-7001.09-7386v285.95Z" transform="translate(7218.89 7610.82)"/><path class="a" d="M-7180.91-7391l3.79-.54a6,6,0,0,0,1.52.47c5.26.05,10.52.12,15.77.05,3.09,0,6.18-.39,9.27-.46a27,27,0,0,1,4,.48l2.74-.53h100.27c2.08,0,4.17,0,6.25,0s4.2-.19,5.74,1.65c2.15,1.31,2.93,3,2.83,5.72-.29,7.53-.1,15.08-.1,22.63v20.18c-.1,9.84-.27,19.69-.27,29.53s.17,19.84.27,29.76c0,3.52-.2,7.07.18,10.54.24,2.22-.42,2.83-2.38,2.74l-10.89.54h-143.33l-5.46-1.09c-.23-.28-.65-.55-.66-.83-.17-5.53-.44-11.07-.4-16.6.08-13.29.32-26.58.5-39.86v-15.82q-.1-13.23-.22-26.47a8.66,8.66,0,0,1,.22-1.32q0-9,0-18l2.71-2.16C-7186.1-7391.86-7183.47-7391-7180.91-7391Zm-6,117.93h6.33q49.71,0,99.41,0,22.32,0,44.66-.13c3.82,0,3.81-.13,3.7-3.84-.09-3.18-.22-6.36-.23-9.53q-.11-48.52-.17-97v-3.47h-153.7Z" transform="translate(7218.89 7610.82)"/><path class="c" d="M-7031-7268.83c2,.09,2.62-.52,2.38-2.74-.38-3.47-.15-7-.18-10.54-.1-9.92-.27-19.84-.27-29.76s.17-19.69.27-29.53l22.88,3.28v10.38c-4,.54-8,1.05-12,1.64a22.06,22.06,0,0,0-3.94.9c-3.33,1.12-3.86,2.87-2.08,5.94a5.73,5.73,0,0,1,.59,2.82c-.15,13.6-.31,27.19-.56,40.78-.05,2.51-.49,5-.78,7.75Z" transform="translate(7218.89 7610.82)"/><path class="c" d="M-7006-7311.95v34.4c-6.91-.06-7.62.67-7.62,7.77v5.14l-4,.24c0-.88,0-1.63,0-2.37,0-.9.2-1.8.21-2.7.2-13.34.41-26.68.52-40,0-1.9.57-2.57,2.49-2.48C-7011.61-7311.83-7008.79-7311.94-7006-7311.95Z" transform="translate(7218.89 7610.82)"/><path class="c" d="M-7160.22-7268.29h118.28c.25,2.4-1.3,2.61-3.09,2.54-3.07-.11-6.14-.29-9.21-.35q-14.68-.32-29.36-.56-20.55-.32-41.08-.54c-4.7-.05-5.23.5-5.59,5.22a9.06,9.06,0,0,1-.3,1.3c-5.26-.23-10.47-.39-15.68-.71a90.28,90.28,0,0,1-9.13-1,4.47,4.47,0,0,1-2.54-1.74A32.6,32.6,0,0,1-7160.22-7268.29Z" transform="translate(7218.89 7610.82)"/><path class="c" d="M-7006-7253.55v30h-12.38v-12.92l5.44-.73a3.3,3.3,0,0,0,3.16-4.05c-.36-3-.7-6.07-1.13-9.09-.39-2.66.71-3.65,3.29-3.23A12.49,12.49,0,0,0-7006-7253.55Z" transform="translate(7218.89 7610.82)"/><path class="c" d="M-7191.29-7326.67c-.18,13.28-.42,26.57-.5,39.86,0,5.53.23,11.07.4,16.6,0,.28.43.55.66.83l-1,1.64a15.08,15.08,0,0,1,3.72,1.07c.43.25.65,1.94.37,2.13a17.3,17.3,0,0,1-3.49,1.53c-.52,1.65-1.16,3.63-1.79,5.62-1.92.14-1.65-1.24-1.63-2.39.17-8.32.46-16.64.51-25,.09-12.66,0-25.33,0-38v-2.94Z" transform="translate(7218.89 7610.82)"/><path class="f" d="M-7192.91-7257.39c.63-2,1.27-4,1.79-5.62a17.3,17.3,0,0,0,3.49-1.53c.28-.19.06-1.88-.37-2.13a15.08,15.08,0,0,0-3.72-1.07l1-1.64,5.46,1.09v11.36Z" transform="translate(7218.89 7610.82)"/><path class="c" d="M-7028.85-7347.92v-13.66L-7006-7355v9.84c-1.16-.12-2.32-.22-3.48-.36Z" transform="translate(7218.89 7610.82)"/><path class="c" d="M-7047.94-7391.56h-5.46c0-.45,0-.91,0-1.36,0-4.95-.7-5.67-5.58-5.73h-1.51c0-.6,0-1.1,0-1.59s.13-.88.25-1.69c1.45,0,2.87.07,4.29,0,3.59-.22,4.57-1.18,4.72-4.5.21-4.43.52-4.74,4.94-4.74,3.72,0,7.44,0,11.16,0,2.14,0,3,.77,3,3.06s-1.11,3-3.16,2.94c-.18,0-.36,0-.54,0-5.19.05-5.19.05-5.91,5.32-1,.05-2.05.17-3.09.13-2.36-.11-3.3,1-3.19,3.29C-7047.88-7394.84-7047.94-7393.2-7047.94-7391.56Z" transform="translate(7218.89 7610.82)"/><path class="c" d="M-7006-7375.76v7.64l-13.05-2.67v-12.93c0-.18,0-.5.09-.51a54.76,54.76,0,0,1,7-.66c.55,0,1.52,1.42,1.55,2.21C-7010.28-7379.43-7009.39-7376.82-7006-7375.76Z" transform="translate(7218.89 7610.82)"/><path class="c" d="M-7031.58-7389.93c-1.54-1.84-3.64-1.69-5.74-1.65s-4.17,0-6.25,0c0-4-.47-3.84,3.45-3.84,2.81,0,3.29-.81,3.3-5.36l5.24.68Z" transform="translate(7218.89 7610.82)"/><path class="c" d="M-7057.74-7391.57h-13.08c-.21-1.93.51-2.83,2.58-2.76,3.32.12,6.65,0,10.28,0Z" transform="translate(7218.89 7610.82)"/><path class="b" d="M-6956.92-7359.92l-23.45-16.92c1.63-2.46,4.14-1.62,6.33-1.52,3.85.17,7.69.74,11.54.94s5.56,1.86,5.58,5.74S-6956.92-7363.84-6956.92-7359.92Z" transform="translate(7218.89 7610.82)"/><path class="c" d="M-7006-7191.92q0,42,0,84l-2.45-.14v-83.49Z" transform="translate(7218.89 7610.82)"/><path class="c" d="M-6947.65-7133.57l3.27-2.72c.51,4.36,1.31,8.71,1.36,13.08,0,1.33-2,2.68-3.16,4l-.68-.49Q-6947.25-7126.62-6947.65-7133.57Z" transform="translate(7218.89 7610.82)"/><path class="c" d="M-6767.93-7259.4l16.89-13c2.9,2.71,2.9,2.71.16,5.47-4.15,4.18-4.39,6-1.2,10.31l-4.87,4.21Z" transform="translate(7218.89 7610.82)"/><path class="a" d="M-6795.55-7405.21c-1.75-8.69-3.54-17.36-5.23-26.06-.57-2.91-.86-5.88-1.28-8.82q9.24-19.33,18.5-38.67c1.5-2.55,3-5.1,4.82-8.23,2.65,5,5.11,9.7,7.56,14.37.45,1,.9,2,1.34,3.05q4,8.19,8,16.37l1.76,3.81c5.77,7.78,3.81,16.05,2,24.55-5.58,25.81-10.83,51.69-16.26,77.54-.57,2.73-1.47,5.39-2.22,8.08l-2.13,5.89-.87.1c-2.07-8.6-4.3-17.16-6.16-25.8-3.3-15.22-6.37-30.49-9.54-45.73A1.46,1.46,0,0,0-6795.55-7405.21Zm7.64,12.59q1,4.9,2,9.81c.44,2.39.79,4.8,1.32,7.17,1,4.35,2.09,8.67,3.14,13q1.08,5.76,2.17,11.53c0,.41.09.82.13,1.23l.67.07,3.12-15.94c.81-3.52,1.69-7,2.41-10.56,1.57-7.62,3.06-15.26,4.57-22.9q1.38-6.54,2.75-13.09c1.81-8.46,3.65-16.92,5.4-25.39a3.59,3.59,0,0,0-.44-2.06c-1.27-2.69-2.61-5.35-3.92-8q-3.42-7.11-6.83-14.24l-7.44-15.67-3.11,7c-2.78,5.68-5.6,11.33-8.31,17a44.75,44.75,0,0,0-1.64,4.73c-4.41,5.43-6.72,11.31-4.11,18.35a31.62,31.62,0,0,1,1,4.48l6.63,31.26C-6788.24-7394.09-6788.07-7393.35-6787.91-7392.62Z" transform="translate(7218.89 7610.82)"/><path class="a" d="M-6768.91-7508.36c-5.41,5.65-10.94,6.95-16.69,3.81-4.67-2.56-6.57-6.75-6.66-11.92.81-4.61,2.83-8.39,7.23-10.51a12.8,12.8,0,0,1,14.16,2.14,12.69,12.69,0,0,1,3.06,14C-6768.14-7510-6768.54-7509.19-6768.91-7508.36Zm-18.65-7.37a8.19,8.19,0,0,0,8,8.29,8.16,8.16,0,0,0,8.11-8.16,8.1,8.1,0,0,0-7.86-8.1A8.08,8.08,0,0,0-6787.56-7515.73Z" transform="translate(7218.89 7610.82)"/><path class="h" d="M-6761.82-7453.2q-4-8.18-8-16.37c1.61.18,3.21.5,4.81.52,4.67.07,9.33.09,14,0,1.54,0,2.39.38,2.51,2,.28,3.86.59,7.72.89,11.58.13,1.56-.82,1.75-2.06,1.73-3,0-6-.06-9,0A21.91,21.91,0,0,0-6761.82-7453.2Z" transform="translate(7218.89 7610.82)"/><path class="a" d="M-6676.79-7422.11c-.85-9.62,3.78-16.49,11.15-21.84,4-2.87,8.29-4,12.83-1,2.45,2.32,3,5.26,2.76,8.45-.52,7.63-8.33,17.51-15.61,19.71C-6670.87-7415.23-6674.29-7416.86-6676.79-7422.11Zm4.39-3.25c0,3.52,1.61,5,4.87,4.29,6.07-1.27,13.38-10.9,13-17.16-.18-3.11-1.92-4.42-4.86-3.64C-6665.75-7440.2-6672.33-7431.87-6672.4-7425.36Z" transform="translate(7218.89 7610.82)"/><path class="a" d="M-6906.16-7445.38c6.35-2.65,11.46-.15,15.92,4.13,5.56,5.32,8.57,11.76,7.48,19.68-3.16,6.6-8.78,8.43-15.19,4.79a23.82,23.82,0,0,1-12.37-17.55C-6911.06-7438.82-6909.87-7442.58-6906.16-7445.38Zm19.08,20.27c.05-6.43-5.77-14.4-12-16.4-4.27-1.38-7.06.75-7.05,5.37,0,6,6.33,14.41,12.09,16.14C-6889.68-7418.69-6887.11-7420.59-6887.08-7425.11Z" transform="translate(7218.89 7610.82)"/><path class="b" d="M-7028.85-7347.92l19.4,2.37c1.16.14,2.32.24,3.48.36v7.07l-22.88-3.28Z" transform="translate(7218.89 7610.82)"/><path class="x" d="M-6765.63-7412.3q-1.38,6.54-2.75,13.09c-1.95-.32-3.89-.66-5.85-1s-3.38,1-2.91,3.09c.94,4.22,2,8.37,1.79,12.82-.27,6.16,0,12.34,0,18.52l-3.12,15.94-.67-.07c0-.41-.09-.82-.13-1.23,0-4.83.06-9.67,0-14.5-.11-8.11-.36-16.23-.43-24.34,0-2.08-1.09-2.44-2.81-2.8a42.23,42.23,0,0,1-5.87-2.07l-6.63-31.26a31.62,31.62,0,0,0-1-4.48c-2.61-7-.3-12.92,4.11-18.35,2.08.52.95,2.18,1.19,3.36l-2.43,4.55c4.36.33,8,.77,11.65.83,2.38,0,3.3,1.11,3.35,3.25s-.16,4.55.1,6.79a3.33,3.33,0,0,0,1.78,2.41c2.6.65,5.31.87,8,1.26l1.6,1.07c0,3.22-.1,6.44,0,9.66A14.31,14.31,0,0,0-6765.63-7412.3Zm-26.11-24.64a20.37,20.37,0,0,0,0,3c1.78,9.75,3.58,19.49,5.47,29.21a2.48,2.48,0,0,0,1.67,1.62c2.58.18,5.18.08,7.67.08,0-5.17-.14-9.94.05-14.7.13-3.44,1.33-4.15,4.77-3.56a11.4,11.4,0,0,0,2.25-.26c-1-.66-1.35-1-1.72-1.08-2.48-.41-5-.86-7.47-1.09-2.22-.2-3.25-1.05-3-3.44a45.1,45.1,0,0,0,0-7.07c0-.69-.77-1.83-1.33-1.92C-6786-7436.56-6788.68-7436.69-6791.74-7436.94Z" transform="translate(7218.89 7610.82)"/><path class="r" d="M-6768.3-7426.46c-2.67-.39-5.38-.61-8-1.26a3.33,3.33,0,0,1-1.78-2.41c-.26-2.24,0-4.53-.1-6.79s-1-3.22-3.35-3.25c-3.65-.06-7.29-.5-11.65-.83l2.43-4.55c.31,2.72,1.87,3.43,6.59,2.83,0-3.2-.12-6.45.08-9.67.06-1,1-2,1.54-3,2.6-.14,5.23-.12,7.8-.5.76-.12,1.56-1.24,2-2.08a29.77,29.77,0,0,0,1.33-4q3.42,7.13,6.83,14.24-.52,4.08-1,8.16c-1.21,2.36-3.65,2.15-5.49,2-7.84-.74-6.27-.41-6.47,6.2,0,.09,0,.18,0,.27-.18,1.67.5,2.31,2.24,2.62A57.41,57.41,0,0,1-6768.3-7426.46Zm-10.92-20.4a8.57,8.57,0,0,0,.07,3,4.41,4.41,0,0,0,2,2.5c5,1.66,8-1.2,6.87-6.3a10,10,0,0,1-.27-1.32c-.12-2.28-1.43-3.09-3.58-3.11C-6778.56-7452.17-6779.24-7451.51-6779.22-7446.86Z" transform="translate(7218.89 7610.82)"/><path class="k" d="M-6771.42-7462a29.77,29.77,0,0,1-1.33,4c-.41.84-1.21,2-2,2.08-2.57.38-5.2.36-7.8.5-1.87-.9-2.4-2.13-1.79-4.3,1-3.58,1.58-7.29,2.34-11l3.11-7Z" transform="translate(7218.89 7610.82)"/><path class="r" d="M-6775.36-7365.75c0-6.18-.26-12.36,0-18.52.2-4.45-.85-8.6-1.79-12.82-.47-2.08.83-3.41,2.91-3.09s3.9.65,5.85,1c-1.51,7.64-3,15.28-4.57,22.9C-6773.67-7372.77-6774.55-7369.27-6775.36-7365.75Z" transform="translate(7218.89 7610.82)"/><path class="k" d="M-6765.63-7439.61q.51-4.08,1-8.16c1.31,2.67,2.65,5.33,3.92,8a3.59,3.59,0,0,1,.44,2.06c-1.75,8.47-3.59,16.93-5.4,25.39a14.31,14.31,0,0,1-1-3.43c-.14-3.22,0-6.44,0-9.66Q-6766.16-7432.5-6765.63-7439.61Z" transform="translate(7218.89 7610.82)"/><path class="y" d="M-6782-7470.68c-.76,3.66-1.32,7.37-2.34,11-.61,2.17-.08,3.4,1.79,4.3-.54,1-1.48,2-1.54,3-.2,3.22-.08,6.47-.08,9.67-4.72.6-6.28-.11-6.59-2.83-.24-1.18.89-2.84-1.19-3.36a44.75,44.75,0,0,1,1.64-4.73C-6787.57-7459.35-6784.75-7465-6782-7470.68Z" transform="translate(7218.89 7610.82)"/><path class="n" d="M-6781.45-7362.64c-1.05-4.33-2.15-8.65-3.14-13-.53-2.37-.88-4.78-1.32-7.17,2.07.73,4.25,2.06,5.53-1.11Q-6780.92-7373.27-6781.45-7362.64Z" transform="translate(7218.89 7610.82)"/><path class="z" d="M-6781.45-7362.64q.54-10.63,1.07-21.28c.19-6.36.19-6.36-5.71-8.19-.6-.19-1.21-.34-1.82-.51-.16-.73-.33-1.47-.49-2.2a42.23,42.23,0,0,0,5.87,2.07c1.72.36,2.79.72,2.81,2.8.07,8.11.32,16.23.43,24.34.07,4.83,0,9.67,0,14.5Q-6780.37-7356.87-6781.45-7362.64Z" transform="translate(7218.89 7610.82)"/><path class="m" d="M-6787.91-7392.62c.61.17,1.22.32,1.82.51,5.9,1.83,5.9,1.83,5.71,8.19-1.28,3.17-3.46,1.84-5.53,1.11Q-6786.9-7387.71-6787.91-7392.62Z" transform="translate(7218.89 7610.82)"/><path class="r" d="M-6787.56-7515.73a8.08,8.08,0,0,1,8.25-8,8.1,8.1,0,0,1,7.86,8.1,8.16,8.16,0,0,1-8.11,8.16A8.19,8.19,0,0,1-6787.56-7515.73Z" transform="translate(7218.89 7610.82)"/><path class="r" d="M-6672.4-7425.36c.07-6.51,6.65-14.84,13-16.51,2.94-.78,4.68.53,4.86,3.64.35,6.26-7,15.89-13,17.16C-6670.79-7420.39-6672.44-7421.84-6672.4-7425.36Z" transform="translate(7218.89 7610.82)"/><path class="r" d="M-6887.08-7425.11c0,4.52-2.6,6.42-6.93,5.11-5.76-1.73-12.07-10.16-12.09-16.14,0-4.62,2.78-6.75,7.05-5.37C-6892.85-7439.51-6887-7431.54-6887.08-7425.11Z" transform="translate(7218.89 7610.82)"/><path class="r" d="M-6791.74-7436.94c3.06.25,5.74.38,8.37.79.56.09,1.29,1.23,1.33,1.92a45.1,45.1,0,0,1,0,7.07c-.22,2.39.81,3.24,3,3.44,2.51.23,5,.68,7.47,1.09.37.06.69.42,1.72,1.08a11.4,11.4,0,0,1-2.25.26c-3.44-.59-4.64.12-4.77,3.56-.19,4.76-.05,9.53-.05,14.7-2.49,0-5.09.1-7.67-.08a2.48,2.48,0,0,1-1.67-1.62c-1.89-9.72-3.69-19.46-5.47-29.21A20.37,20.37,0,0,1-6791.74-7436.94Z" transform="translate(7218.89 7610.82)"/><path class="h" d="M-6765.63-7439.61q-.54,7.11-1.07,14.22l-1.6-1.07a57.41,57.41,0,0,0-7.05-2.09c-1.74-.31-2.42-.95-2.24-2.62,0-.09,0-.18,0-.27.2-6.61-1.37-6.94,6.47-6.2C-6769.28-7437.46-6766.84-7437.25-6765.63-7439.61Z" transform="translate(7218.89 7610.82)"/><path class="x" d="M-6779.22-7446.86c0-4.65.66-5.31,5.14-5.27,2.15,0,3.46.83,3.58,3.11a10,10,0,0,0,.27,1.32c1.12,5.1-1.91,8-6.87,6.3a4.41,4.41,0,0,1-2-2.5A8.57,8.57,0,0,1-6779.22-7446.86Z" transform="translate(7218.89 7610.82)"/></svg>